<svg width="500" height="85" viewBox="0 0 500 85" xmlns="http://www.w3.org/2000/svg">
  <path d="M0 67.724V1.103h50.827v13.875H15.632v11.579h33.276v13.875H15.632V53.85h35.195v13.875zm109.248-49.437v42.821q0 6.892-2.011 11.487t-5.485 7.26q-3.474 2.756-8.045 3.95T84.017 85q-10.239 0-16.363-4.503-6.126-4.503-7.954-11.302h14.261q1.371 2.849 3.931 3.95 2.56 1.196 5.942 1.196 5.668 0 8.045-2.757t2.377-7.535v-5.881q-2.378 4.043-6.765 5.973-4.388 1.837-8.41 1.837-6.309 0-11.245-2.848-4.846-2.85-7.678-8.27-2.743-5.514-2.743-13.325 0-7.903 2.742-13.324 2.835-5.422 7.68-8.179 4.935-2.848 11.244-2.848 4.021 0 8.41 1.93 4.388 1.838 6.765 5.88v-6.707zm-25.231 35.93q3.017 0 5.485-1.103 2.468-1.195 3.93-3.952 1.464-2.848 1.464-7.627 0-4.871-1.463-7.627t-3.931-3.86q-2.468-1.102-5.485-1.102-4.479 0-7.77 3.032-3.2 3.033-3.2 9.557t3.2 9.649q3.291 3.032 7.77 3.032m85.758-35.929v42.821q0 6.892-2.011 11.487t-5.485 7.26q-3.474 2.756-8.044 3.95Q149.663 85 144.544 85q-10.238 0-16.363-4.503-6.124-4.503-7.953-11.302h14.261q1.37 2.849 3.931 3.95 2.56 1.196 5.942 1.196 5.667 0 8.044-2.757t2.377-7.535v-5.881q-2.376 4.043-6.765 5.973-4.387 1.837-8.41 1.837-6.308 0-11.244-2.848-4.845-2.85-7.679-8.27-2.742-5.514-2.743-13.325 0-7.903 2.743-13.324 2.834-5.422 7.679-8.179 4.936-2.848 11.244-2.848 4.023 0 8.41 1.93 4.389 1.838 6.765 5.88v-6.707zm-25.231 35.93q3.018 0 5.485-1.103 2.469-1.195 3.931-3.952 1.463-2.848 1.463-7.627 0-4.871-1.463-7.627-1.462-2.756-3.931-3.86-2.467-1.102-5.485-1.102-4.479 0-7.77 3.032-3.2 3.033-3.199 9.557 0 6.525 3.199 9.649 3.291 3.032 7.77 3.032m59.979-25.821q-2.285 0-4.57.827-2.286.826-4.114 2.848-1.737 1.93-2.56 5.606h21.666q-.366-4.411-3.108-6.8-2.651-2.481-7.314-2.481m11.245 23.8h13.895q-2.194 5.79-6.125 9.556-3.84 3.676-8.685 5.422-4.753 1.746-9.69 1.746-7.953 0-14.078-3.124-6.033-3.124-9.507-9.006-3.382-5.88-3.382-14.06 0-7.902 3.565-13.691 3.657-5.88 9.598-9.006 6.034-3.216 13.164-3.216 7.771 0 13.439 3.584 5.759 3.492 8.867 9.74t3.108 14.428v.919q0 .55-.091 1.378h-36.658q1.005 5.697 4.296 7.994 3.291 2.298 7.222 2.298 4.297 0 7.039-1.379 2.743-1.378 4.023-3.583m22.664 15.529V18.287h14.535v9.373q1.737-4.32 4.937-6.892 3.2-2.666 8.502-2.85h1.097q.639 0 1.188.093v14.794a14.4 14.4 0 0 0-2.194-.183 19 19 0 0 0-1.92-.092q-5.393 0-8.227 2.297t-2.834 8.087v24.81zm76.726-51.367q0 1.93 1.371 3.767a101 101 0 0 0 3.383 4.044q3.84-2.206 4.845-4.227t1.005-3.492q0-2.298-1.736-3.492-1.646-1.195-3.748-1.195-2.286 0-3.749 1.378-1.371 1.38-1.371 3.217m24.591 51.367-4.936-5.605q-4.663 3.492-9.416 5.146-4.662 1.654-10.147 1.654-6.765 0-12.159-2.481-5.393-2.574-8.501-7.168-3.11-4.595-3.109-10.751 0-6.525 4.114-11.119 4.206-4.687 10.513-7.81-3.474-4.32-4.662-7.444-1.097-3.216-1.097-6.34 0-4.32 2.468-7.903 2.468-3.585 6.948-5.698Q314.245 0 320.186 0q5.028 0 9.416 1.654 4.479 1.654 7.222 5.054 2.742 3.4 2.742 8.822 0 5.33-3.199 9.648-3.2 4.32-8.959 7.26l7.405 8.27q1.463-4.043 2.102-6.8.731-2.848.914-5.146h14.718q-.457 5.055-2.376 10.66-1.92 5.605-5.668 11.946l14.718 16.356zm-32.818-19.94q0 4.319 2.742 6.616 2.743 2.205 6.948 2.205 2.376 0 4.662-.918 2.377-.92 5.211-2.941l-12.25-13.784q-4.113 2.205-5.759 4.411-1.554 2.114-1.554 4.41m120.258-4.869h15.357q-1.188 7.718-5.485 13.6-4.296 5.788-10.969 9.097t-15.084 3.308q-10.33 0-17.826-4.135-7.405-4.227-11.427-11.946-3.931-7.81-3.931-18.47 0-10.568 4.114-18.195 4.113-7.719 11.609-11.946Q401.135 0 411.465 0q8.319 0 14.809 3.4 6.49 3.307 10.605 9.19 4.113 5.788 5.21 13.415h-15.358q-1.279-6.8-5.759-9.924-4.479-3.124-10.056-3.124-4.662 0-8.41 2.573-3.747 2.481-5.942 7.26-2.194 4.777-2.194 11.578 0 6.983 2.194 11.854 2.195 4.778 5.942 7.26 3.84 2.48 8.593 2.48 3.383 0 6.674-1.103 3.382-1.194 5.942-4.043 2.559-2.848 3.474-7.903m46.757 26.006q-6.855 0-12.798-2.757-5.942-2.848-9.599-8.638t-3.656-14.702q0-9.006 3.656-14.703 3.657-5.79 9.599-8.546 5.943-2.757 12.798-2.757t12.799 2.757q5.942 2.757 9.598 8.546Q500 33.816 500 42.822q0 8.913-3.657 14.702-3.656 5.79-9.598 8.638-5.943 2.757-12.799 2.757m0-11.762q4.572 0 7.588-3.216 3.108-3.309 3.108-11.12 0-7.902-3.108-11.026-3.108-3.217-7.588-3.217-4.479 0-7.587 3.217-3.108 3.123-3.108 11.027 0 7.81 3.016 11.118 3.109 3.217 7.679 3.217"/>
</svg>
