<svg width="501" height="85" viewBox="0 0 501 85" fill="#fff" xmlns="http://www.w3.org/2000/svg">
  <path d="M.96 67.592V1.754h50.828v13.712H16.593v11.442h33.275v13.713H16.594v13.258h35.195v13.713zm109.249-48.857v42.318q0 6.81-2.011 11.352-2.011 4.54-5.485 7.174-3.474 2.724-8.045 3.905t-9.69 1.18q-10.239 0-16.363-4.45-6.126-4.45-7.954-11.17h14.261q1.371 2.815 3.931 3.906 2.56 1.18 5.942 1.18 5.668 0 8.045-2.724t2.377-7.447v-5.812q-2.377 3.996-6.765 5.903-4.388 1.816-8.41 1.816-6.309 0-11.245-2.815-4.845-2.815-7.679-8.173-2.742-5.449-2.742-13.167 0-7.81 2.742-13.168 2.835-5.358 7.68-8.082 4.935-2.815 11.243-2.815 4.023 0 8.41 1.907 4.389 1.816 6.766 5.812v-6.63zM84.978 54.242q3.017 0 5.485-1.09 2.468-1.18 3.93-3.904 1.463-2.816 1.463-7.537 0-4.814-1.462-7.538-1.463-2.724-3.931-3.814t-5.485-1.09q-4.479 0-7.77 2.997-3.2 2.997-3.2 9.445 0 6.447 3.2 9.535 3.291 2.996 7.77 2.996m85.758-35.507v42.318q0 6.81-2.011 11.352-2.011 4.54-5.485 7.174-3.474 2.724-8.045 3.905t-9.69 1.18q-10.238 0-16.363-4.45-6.124-4.45-7.953-11.17h14.261q1.37 2.815 3.931 3.906 2.56 1.18 5.942 1.18 5.667 0 8.044-2.724t2.377-7.447v-5.812q-2.377 3.996-6.765 5.903-4.388 1.816-8.41 1.816-6.308 0-11.244-2.815-4.845-2.815-7.679-8.173-2.743-5.449-2.743-13.167 0-7.81 2.743-13.168 2.834-5.358 7.679-8.082 4.936-2.815 11.244-2.815 4.022 0 8.41 1.907 4.388 1.816 6.765 5.812v-6.63zm-25.231 35.507q3.018 0 5.485-1.09 2.469-1.18 3.931-3.904 1.463-2.816 1.463-7.537 0-4.814-1.463-7.538-1.462-2.724-3.931-3.814-2.467-1.09-5.485-1.09-4.479 0-7.77 2.997-3.2 2.997-3.2 9.445 0 6.447 3.2 9.535 3.291 2.996 7.77 2.996m59.979-25.517q-2.285 0-4.57.817t-4.114 2.815q-1.737 1.907-2.56 5.54h21.666q-.366-4.36-3.108-6.72-2.652-2.452-7.314-2.452m11.244 23.52h13.896q-2.195 5.721-6.125 9.444-3.84 3.633-8.685 5.358-4.754 1.725-9.69 1.725-7.953 0-14.078-3.087-6.033-3.088-9.507-8.9-3.383-5.812-3.383-13.894 0-7.81 3.566-13.53 3.656-5.813 9.598-8.9 6.035-3.18 13.164-3.179 7.771 0 13.438 3.542 5.76 3.451 8.868 9.626 3.108 6.176 3.108 14.257v.908q0 .546-.091 1.363h-36.658q1.005 5.63 4.296 7.9t7.222 2.27q4.297 0 7.039-1.362t4.022-3.541m22.665 15.347V18.735h14.535v9.263q1.737-4.268 4.937-6.81 3.2-2.634 8.502-2.816h1.097q.639 0 1.188.091v14.62a14.6 14.6 0 0 0-2.194-.181q-.913-.09-1.92-.09-5.393 0-8.227 2.27t-2.834 7.99v24.52zm76.726-50.764q0 1.908 1.371 3.724 1.372 1.725 3.383 3.995 3.838-2.18 4.845-4.177 1.005-1.998 1.005-3.45 0-2.271-1.737-3.452-1.645-1.18-3.748-1.18-2.285 0-3.748 1.362-1.371 1.362-1.371 3.178m24.591 50.764-4.936-5.54q-4.663 3.45-9.416 5.086-4.662 1.635-10.147 1.634-6.765 0-12.159-2.452-5.393-2.542-8.501-7.083-3.11-4.54-3.109-10.625 0-6.446 4.114-10.988 4.206-4.631 10.513-7.719-3.474-4.268-4.662-7.356-1.097-3.177-1.097-6.265 0-4.27 2.468-7.81 2.467-3.542 6.948-5.63 4.48-2.18 10.421-2.18 5.028 0 9.416 1.635 4.479 1.634 7.222 4.994 2.742 3.36 2.742 8.718 0 5.267-3.199 9.535-3.2 4.269-8.959 7.174l7.405 8.173q1.463-3.995 2.102-6.72.731-2.815.914-5.085h14.718q-.456 4.994-2.377 10.534t-5.667 11.805l14.718 16.165zm-32.818-19.706q0 4.267 2.742 6.538 2.742 2.18 6.948 2.18 2.376 0 4.662-.909 2.377-.908 5.211-2.906l-12.25-13.621q-4.113 2.18-5.759 4.359-1.554 2.088-1.554 4.359m120.257-4.813h15.358q-1.188 7.627-5.485 13.44-4.296 5.72-10.97 8.99-6.672 3.27-15.083 3.27-10.33 0-17.826-4.087-7.405-4.177-11.427-11.806-3.931-7.719-3.931-18.253 0-10.443 4.114-17.98 4.113-7.628 11.609-11.806Q402.096.664 412.426.664q8.319 0 14.809 3.36 6.49 3.27 10.605 9.081 4.113 5.721 5.21 13.258h-15.358q-1.28-6.72-5.759-9.807t-10.056-3.088q-4.662 0-8.41 2.543-3.748 2.452-5.942 7.174t-2.194 11.442q0 6.902 2.194 11.715 2.194 4.723 5.942 7.174 3.84 2.452 8.593 2.452 3.383 0 6.674-1.09 3.382-1.18 5.942-3.996 2.56-2.814 3.473-7.81m46.758 25.7q-6.856 0-12.798-2.724-5.942-2.815-9.599-8.536t-3.656-14.53q0-8.9 3.656-14.53 3.657-5.721 9.599-8.445t12.798-2.725 12.799 2.725q5.942 2.724 9.598 8.445 3.657 5.63 3.657 14.53 0 8.809-3.657 14.53t-9.598 8.536q-5.943 2.724-12.799 2.724m0-11.624q4.572 0 7.588-3.178 3.108-3.27 3.108-10.988 0-7.81-3.108-10.897-3.108-3.18-7.588-3.179-4.479 0-7.587 3.179-3.108 3.087-3.108 10.897 0 7.72 3.016 10.988 3.109 3.178 7.679 3.178"/>
</svg>
